#!OML:ASF X:\für Bonn\!DataBase\2005_08_11_Bastian_Final\c3d\Bastian.ASF
:FULLY-SPECIFIED
:DEGREES
324
root 20.3031 17.3582 -4.3596 540.353 -117.724 -179.966
lowerback 41.0467 5.31108 0.800262
upperback 17.8529 4.92403 0.550538
thorax 0.271326 1.76411 -1.4707
lowerneck -8.30507 -11.4614 2.01814
upperneck -22.6927 -13.9969 17.505
head -4.32058 -8.59676 5.24973
rclavicle 1.66979e-014 -1.19271e-014
rhumerus 17.5473 45.2295 -64.0344
rradius 32.3492
rwrist -16.0987
rhand -35.6549 6.72726
rfingers 7.12502
rthumb -8.77675 -23.0703
lclavicle 1.66979e-014 -1.19271e-014
lhumerus -8.3945 -19.2724 86.5929
lradius 25.5863
lwrist 26.3616
lhand -13.8739 -9.96065
lfingers 7.12502
lthumb 12.2507 19.6605
rfemur -17.3803 -10.194 21.715
rtibia 45.4484
rfoot -17.4303 -14.2094
rtoes -4.54328
lfemur -16.4153 -2.68614 -21.0453
ltibia 33.0021
lfoot -8.9103 -11.0735
ltoes -12.459
325
root 20.249 17.3608 -4.31431 540.314 -117.318 -180.218
lowerback 40.3238 5.23942 0.704963
upperback 17.7728 4.83206 0.40226
thorax 0.391762 1.73154 -1.52606
lowerneck -8.20359 -11.4067 2.01799
upperneck -22.4935 -13.9243 17.5629
head -4.27371 -8.54935 5.26109
rclavicle 5.56597e-014 -2.78299e-014
rhumerus 16.4326 45.2738 -64.9589
rradius 32.3246
rwrist -15.9468
rhand -35.8 6.75624
rfingers 7.12502
rthumb -8.91684 -23.0353
lclavicle 5.56597e-014 -2.78299e-014
lhumerus -8.3653 -19.0998 86.3639
lradius 25.4358
lwrist 26.3084
lhand -13.9522 -9.82645
lfingers 7.12502
lthumb 12.1752 19.7992
rfemur -17.0481 -9.37005 21.7583
rtibia 45.8036
rfoot -17.0356 -14.5598
rtoes -4.69746
lfemur -15.779 -2.33571 -20.969
ltibia 32.944
lfoot -9.18743 -11.0989
ltoes -11.8909
326
root 20.1934 17.3615 -4.26966 540.299 -116.943 -180.464
lowerback 39.5701 5.15888 0.600035
upperback 17.6959 4.73082 0.283861
thorax 0.526551 1.69218 -1.54098
lowerneck -8.09526 -11.3425 1.99374
upperneck -22.3232 -13.8384 17.6011
head -4.23778 -8.49482 5.27284
rclavicle 4.77083e-015 -6.04305e-014
rhumerus 15.3372 45.2479 -65.8464
rradius 32.2671
rwrist -15.6914
rhand -35.856 6.69193
rfingers 7.12502
rthumb -8.97082 -23.0973
lclavicle 4.77083e-015 -6.04305e-014
lhumerus -8.30232 -18.8645 86.1772
lradius 25.244
lwrist 26.2145
lhand -13.9919 -9.81608
lfingers 7.12502
lthumb 12.1369 19.8119
rfemur -16.8111 -8.50388 21.8248
rtibia 46.2824
rfoot -16.6692 -14.897
rtoes -5.46884
lfemur -15.1738 -2.0652 -20.8916
ltibia 32.8943
lfoot -9.46017 -11.0806
ltoes -11.1345
327
root 20.135 17.3608 -4.22516 540.345 -116.562 -180.791
lowerback 38.7156 5.07863 0.533808
upperback 17.7422 4.64148 0.177579
thorax 0.675047 1.66046 -1.57383
lowerneck -8.04068 -11.2863 2.02436
upperneck -22.1128 -13.7777 17.6033
head -4.18722 -8.45051 5.25952
rclavicle -2.54444e-014 4.6118e-014
rhumerus 14.2487 45.1185 -66.7586
rradius 32.1686
rwrist -15.3681
rhand -35.822 6.57401
rfingers 7.12502
rthumb -8.93809 -23.2167
lclavicle -2.54444e-014 4.6118e-014
lhumerus -8.22982 -18.8025 85.9625
lradius 25.1026
lwrist 26.23
lhand -14.0495 -9.79979
lfingers 7.12502
lthumb 12.0814 19.8314
rfemur -16.6242 -7.59557 21.9472
rtibia 46.8831
rfoot -16.3864 -15.0925
rtoes -6.32608
lfemur -14.5534 -1.78977 -20.7679
ltibia 32.8695
lfoot -9.75949 -11.0733
ltoes -10.4602
328
root 20.0772 17.3574 -4.18114 540.183 -116.196 -180.902
lowerback 38.0052 5.00907 0.383919
upperback 17.6891 4.53691 0.0597061
thorax 0.827516 1.6144 -1.56443
lowerneck -7.99816 -11.2124 2.0478
upperneck -21.9304 -13.6947 17.5834
head -4.14655 -8.39543 5.24239
rclavicle 4.49253e-014 -2.127e-014
rhumerus 13.2367 44.9626 -67.5786
rradius 32.0691
rwrist -15.0197
rhand -35.639 6.43604
rfingers 7.12502
rthumb -8.76144 -23.3621
lclavicle 4.49253e-014 -2.127e-014
lhumerus -8.07957 -18.5484 85.7791
lradius 24.8684
lwrist 26.0911
lhand -14.0477 -9.83599
lfingers 7.12502
lthumb 12.0831 19.7951
rfemur -16.5088 -6.73588 21.9643
rtibia 47.6246
rfoot -16.1562 -15.0526
rtoes -7.02097
lfemur -13.9238 -1.4904 -20.7558
ltibia 32.8424
lfoot -10.052 -11.1034
ltoes -9.79615
329
root 20.0188 17.3545 -4.13796 540.077 -115.859 -181.082
lowerback 37.3113 4.91417 0.281807
upperback 17.6404 4.41808 -0.0464073
thorax 0.986942 1.56318 -1.56342
lowerneck -7.96208 -11.1483 2.03064
upperneck -21.7321 -13.6209 17.6023
head -4.0922 -8.34299 5.24073
rclavicle 1.35174e-014 -2.88238e-014
rhumerus 12.2635 44.7891 -68.3603
rradius 31.9652
rwrist -14.7097
rhand -35.3607 6.38284
rfingers 7.12502
rthumb -8.49292 -23.4264
lclavicle 1.35174e-014 -2.88238e-014
lhumerus -7.92944 -18.4442 85.5809
lradius 24.6825
lwrist 26.0572
lhand -14.0727 -9.934
lfingers 7.12502
lthumb 12.059 19.6985
rfemur -16.4709 -5.92929 22.0339
rtibia 48.4955
rfoot -15.9739 -14.9219
rtoes -7.45152
lfemur -13.2862 -1.19407 -20.7079
ltibia 32.7996
lfoot -10.3448 -11.1375
ltoes -9.2659
330
root 19.9596 17.3533 -4.09502 540.045 -115.513 -181.322
lowerback 36.5994 4.80795 0.177407
upperback 17.6135 4.28368 -0.141445
thorax 1.17979 1.50221 -1.54427
lowerneck -8.00302 -11.0577 2.02951
upperneck -21.5042 -13.5236 17.6018
head -4.02129 -8.27549 5.22481
rclavicle 6.75868e-014 -5.66536e-014
rhumerus 11.4131 44.5753 -69.0894
rradius 31.7983
rwrist -14.2511
rhand -35.0455 6.29003
rfingers 7.12502
rthumb -8.18873 -23.5313
lclavicle 6.75868e-014 -5.66536e-014
lhumerus -7.7082 -18.2596 85.3782
lradius 24.4792
lwrist 26.037
lhand -14.0699 -10.0014
lfingers 7.12502
lthumb 12.0617 19.631
rfemur -16.5362 -5.18034 22.1346
rtibia 49.4883
rfoot -15.9179 -14.6288
rtoes -7.64507
lfemur -12.6417 -0.895496 -20.6193
ltibia 32.7157
lfoot -10.5796 -11.1891
ltoes -8.38198
331
root 19.8997 17.3527 -4.05357 539.899 -115.205 -181.433
lowerback 35.9008 4.69408 0.0683619
upperback 17.6014 4.13699 -0.271087
thorax 1.39188 1.43661 -1.55596
lowerneck -8.10214 -10.9879 2.05731
upperneck -21.2333 -13.4581 17.6537
head -3.92333 -8.22437 5.21323
rclavicle -1.72943e-014 -3.06128e-014
rhumerus 10.5859 44.201 -69.8625
rradius 31.5989
rwrist -13.8486
rhand -34.5704 6.37559
rfingers 7.12502
rthumb -7.73014 -23.4631
lclavicle -1.72943e-014 -3.06128e-014
lhumerus -7.47229 -18.453 85.085
lradius 24.3887
lwrist 26.2172
lhand -14.121 -9.96709
lfingers 7.12502
lthumb 12.0125 19.6682
rfemur -16.6807 -4.52863 22.1817
rtibia 50.5746
rfoot -15.9126 -14.2367
rtoes -7.35508
lfemur -11.9855 -0.65902 -20.5902
ltibia 32.5826
lfoot -10.8038 -11.244
ltoes -7.78319
